<svg xmlns="http://www.w3.org/2000/svg" viewBox="0 0 128 128">
	<defs>
		<linearGradient id="shieldFill" x1="0" y1="0" x2="1" y2="1">
			<stop offset="0%" stop-color="#8ec1ee" />
			<stop offset="100%" stop-color="#4d8fd1" />
		</linearGradient>
		<linearGradient id="shieldEdge" x1="0" y1="0" x2="0" y2="1">
			<stop offset="0%" stop-color="#eef2f6" />
			<stop offset="100%" stop-color="#b9c0c8" />
		</linearGradient>
		<linearGradient id="torchMetal" x1="0" y1="0" x2="1" y2="1">
			<stop offset="0%" stop-color="#fff5d6" />
			<stop offset="50%" stop-color="#f7d88b" />
			<stop offset="100%" stop-color="#ddb45b" />
		</linearGradient>
		<linearGradient id="flameOuter" x1="0" y1="0" x2="0.3" y2="1">
			<stop offset="0%" stop-color="#ffb15b" />
			<stop offset="65%" stop-color="#f67a30" />
			<stop offset="100%" stop-color="#dd4d25" />
		</linearGradient>
		<linearGradient id="flameInner" x1="0" y1="0" x2="0" y2="1">
			<stop offset="0%" stop-color="#ffe98a" />
			<stop offset="100%" stop-color="#ffc53d" />
		</linearGradient>
	</defs>

	<path
		d="M64 8c14 12 29 17 43 19v39c0 25-16 39-43 54C37 105 21 91 21 66V27c14-2 29-7 43-19z"
		fill="url(#shieldEdge)"
		stroke="#35383d"
		stroke-width="2.6"
		stroke-linejoin="round"
	/>
	<path
		d="M64 19c11 8 23 13 35 15v30c0 20-12.8 31.4-35 45.1C41.8 95.4 29 84 29 64V34c12-2 24-7 35-15z"
		fill="url(#shieldFill)"
	/>

	<path
		d="M55 48h18l-1.7 6.3H56.7z"
		fill="url(#torchMetal)"
		stroke="#4c4032"
		stroke-width="1.5"
		stroke-linejoin="round"
	/>
	<path
		d="M54 41h20l-1.9 6.5H55.9z"
		fill="url(#torchMetal)"
		stroke="#4c4032"
		stroke-width="1.5"
		stroke-linejoin="round"
	/>
	<path
		d="M53 34h22l-2 6.4H55z"
		fill="url(#torchMetal)"
		stroke="#4c4032"
		stroke-width="1.5"
		stroke-linejoin="round"
	/>
	<path
		d="M63.7 52c6.6 0 11 2.8 11 2.8L67.8 87c-.9 4.6-7.7 4.6-8.7 0l-6.8-32.2s4.8-2.8 11.4-2.8z"
		fill="url(#torchMetal)"
		stroke="#4c4032"
		stroke-width="1.7"
		stroke-linejoin="round"
	/>

	<path
		d="M60.8 10.5c-2.9 8-10.4 12.2-8.5 22.7.8 4.4 4.1 8.8 9.7 10.2-3.2-5 1.3-8.3 2.5-12.5 1.1 2.8 5 5.2 5.8 10.7 6.8-4.1 12.1-13 7.5-22.3-1.9-3.9-5.4-6.8-6.4-11.3-1.4 2.2-2.1 5.7-1.8 8.7-2.2-3.2-5-5.2-8.8-6.2z"
		fill="url(#flameOuter)"
		stroke="#4c4032"
		stroke-width="1.7"
		stroke-linejoin="round"
	/>
	<path
		d="M63.4 19.2c-1.4 4.4-5.1 6.6-4.2 12.3.4 2.6 2.2 5 5.1 5.9-1.4-2.8.7-4.7 1.3-7.1.6 1.8 2.9 3.2 3.2 6.5 3.8-2.6 6.2-7.9 3.1-13-1.3-2.1-3.2-3.5-3.8-5.9-.7 1.4-1 3.1-.8 5-1.3-1.6-2.6-2.8-3.9-3.7z"
		fill="url(#flameInner)"
	/>
</svg>